<?xml version="1.0" encoding="utf-8"?>
<!-- Generator: Adobe Illustrator 16.0.0, SVG Export Plug-In . SVG Version: 6.00 Build 0)  -->
<!DOCTYPE svg PUBLIC "-//W3C//DTD SVG 1.1//EN" "http://www.w3.org/Graphics/SVG/1.1/DTD/svg11.dtd">
<svg version="1.1" id="Layer_1" xmlns="http://www.w3.org/2000/svg" xmlns:xlink="http://www.w3.org/1999/xlink" x="0px" y="0px"
	 width="292px" height="94px" viewBox="0 0 292 94" enable-background="new 0 0 292 94" xml:space="preserve">
<g>
	<path d="M130.16113,66.76172c3.43848,2.11523,8.46582,3.87891,13.75781,3.87891c7.84961,0,12.43652-4.14453,12.43652-10.14258
		c0-5.55469-3.17578-8.73047-11.20117-11.81641c-9.70215-3.44092-15.69873-8.46729-15.69873-16.84619
		c0-9.26074,7.67236-16.13965,19.22607-16.13965c6.08594,0,10.49609,1.41113,13.14062,2.91016l-2.11621,6.26172
		c-1.94043-1.05859-5.90918-2.82227-11.28906-2.82227c-8.11426,0-11.2002,4.85059-11.2002,8.9082
		c0,5.55566,3.61523,8.29004,11.81836,11.46484c10.05371,3.88086,15.16895,8.73193,15.16895,17.4624
		c0,9.17383-6.79102,17.11133-20.81348,17.11133c-5.7334,0-11.99463-1.67578-15.16992-3.79297L130.16113,66.76172z"/>
	<path d="M99,0v94h94V0H99z M187,88h-82V6h82V88z"/>
</g>
<g>
	<path d="M270.44434,84.8418c-8.02637-2.11719-15.87598-4.49805-22.75488-6.87988c-1.23535-0.44043-2.46973-0.88184-3.61621-0.88184
		c-14.11133-0.5293-26.19434-10.93652-26.19434-30.07471c0-19.05029,11.6416-31.30957,27.69434-31.30957
		c16.13867,0,26.63477,12.52393,26.63477,30.07471c0,15.25781-7.05566,25.04785-16.93359,28.4873v0.35254
		c5.9082,1.49902,12.34766,2.91113,17.375,3.79199L270.44434,84.8418z M264.09375,46.12354
		c0-11.90674-6.17383-24.16602-18.78613-24.16602c-12.96484,0-19.31445,11.99463-19.22656,24.87109
		c-0.08789,12.61279,6.87891,23.98975,18.87402,23.98975C257.21387,70.81836,264.09375,59.70508,264.09375,46.12354z"/>
	<path d="M198,0v94h94V0H198z M286,88h-82V6h82V88z"/>
</g>
<g>
	<path d="M36.36621,56.77539l-6.17383,18.69727h-7.9375l20.19629-59.44385h9.26074l20.28516,59.44385h-8.20215l-6.34961-18.69727
		H36.36621z M55.85742,50.77734l-5.82031-17.10938c-1.32422-3.88086-2.20508-7.40869-3.08789-10.84814h-0.17578
		c-0.88281,3.52783-1.85254,7.14404-2.99902,10.75977L37.9541,50.77734H55.85742z"/>
	<path d="M0,0v94h94V0H0z M88,88H6V6h82V88z"/>
</g>
</svg>
